# xmcd
# 
# Track frame offsets:
#     150
#     28820
#     55640
#     85022
#     146211
#     149869
#     169419
# 
# Disc length: 2570
# 
# Revision: 0
# Processed by: cddbd v1.5.2PL0 Copyright (c) Steve Scherf et al.
# Submitted via: BonkEnc v1.0.8
# 
DISCID=680a0807
DTITLE=Popa Chubby - Live at the FIP [CD1)
DYEAR=0
DGENRE=
TTITLE0=Hey Joe
TTITLE1=The Dock Of The Bay
TTITLE2=Time Is Killing Me
TTITLE3=Sweet Goddess Of Love And Beer
TTITLE4=Musicians Introduction
TTITLE5=Fire
TTITLE6=Daddy Played The Guitar
EXTD=
EXTT0=
EXTT1=
EXTT2=
EXTT3=
EXTT4=
EXTT5=
EXTT6=
PLAYORDER=
